<svg width="75" height="45" viewBox="0 0 75 45" fill="none" xmlns="http://www.w3.org/2000/svg">
<path d="M33.6448 6.61768C38.5251 6.61768 39.9711 8.62497 39.9711 13.7866V21.1228C39.9711 25.9021 38.7661 28.5665 33.0182 28.5665H26.0534C20.3537 28.5665 19.0885 25.926 19.0885 21.1228V13.7866C19.0885 8.60107 20.5465 6.61768 25.4147 6.61768H33.6448ZM34.2835 11.3253H24.7881V23.8828H34.2835V11.3253Z" fill="#FF251B"/>
<path d="M0.00143051 28.5904V23.8828H11.714V19.9518H0.00143051V15.2443H11.714V11.3253H0.00143051V6.61768H11.714C16.1122 6.61768 17.4136 8.37407 17.4136 12.8666C17.4136 14.9695 16.9437 16.8453 15.1 17.6459C16.9075 18.4225 17.4136 19.6532 17.4136 22.1264C17.4136 26.3322 16.2689 28.6262 11.0874 28.6262L0.00143051 28.5904Z" fill="#FF251B"/>
<path d="M20.4142 31.9839C21.2336 31.9839 21.7397 32.4976 22.2337 33.8L24.1858 39.0572H22.5591L22.0891 37.8624H18.5344L18.0644 39.0572H16.4377L18.3898 33.8C18.8838 32.4857 19.402 31.9839 20.2214 31.9839H20.4142ZM20.1491 33.4893L19.1007 36.2852H21.5107L20.4744 33.4893H20.1491Z" fill="#FF251B"/>
<path d="M15.9797 39.0574H11.3886C9.71368 39.0574 9.35218 38.3166 9.35218 36.9665C9.35218 36.166 9.49677 35.7717 10.0993 35.5208C9.49677 35.2699 9.35218 34.6725 9.35218 33.9914C9.35218 32.5457 9.77393 31.9722 11.1838 31.9722H16.0038V33.4896H11.1838V34.7561H15.4736V36.2735H11.1597V37.54H15.9797V39.0574Z" fill="#FF251B"/>
<path d="M24.6196 31.9839H28.8009C30.2951 31.9839 30.8374 32.5813 30.8374 34.0509C30.8374 35.2457 30.6084 35.9268 29.7288 36.1777L32.6449 39.0572H30.4397L27.6441 36.2733H26.1138V39.0572H24.5834L24.6196 31.9839ZM29.0058 33.4893H26.1499V34.7558H29.0058V33.4893Z" fill="#FF251B"/>
<path d="M37.9346 39.0574H33.3436V37.54H38.1636V36.2735H35.2113C33.5605 36.2735 33.1628 35.4371 33.1628 34.0989C33.1628 32.7607 33.5846 31.9722 35.2113 31.9722H39.7903V33.4896H34.9703V34.7561H37.9226C39.4288 34.7561 39.959 35.3655 39.959 36.8351C39.959 38.3047 39.5975 39.0574 37.9226 39.0574" fill="#FF251B"/>
<path d="M3.94187 39.0572V35.8312L0.061779 31.9839H2.21872L4.71307 34.4452L7.20741 31.9839H9.37641L5.47222 35.8312V39.0572H3.94187Z" fill="#FF251B"/>
<path d="M47.0204 0.0703125H36.1754L57.2629 27.7781L38.1516 44.3025H48.9966L68.1078 27.7781L47.0204 0.0703125Z" fill="#85898D"/>
<path d="M53.0095 0.0703125H49.8765L71.7231 28.6862L54.0578 44.3025H57.1788L74.8561 28.6862L53.0095 0.0703125Z" fill="#85898D"/>
</svg>
