<svg width="143" height="33" viewBox="0 0 143 33" fill="none" xmlns="http://www.w3.org/2000/svg">
<path d="M23.1289 12.4575H8.71029V8.70436H29.4382V1.20128H7.5082C3.36261 1.20128 0 5.39924 0 10.5809C0 15.7626 3.36261 19.9606 7.5082 19.9606H21.93V23.7138H1.20209V31.2136H23.1289C27.2777 31.2136 30.6403 27.0124 30.6403 21.8307C30.6403 16.649 27.2777 12.4575 23.1289 12.4575ZM89.8189 12.4575H75.4003V8.70436H96.1283V1.20128H74.1983C70.0494 1.20128 66.6868 5.39924 66.6868 10.5809C66.6868 15.7626 70.0494 19.9606 74.1983 19.9606H88.6169V23.7138H67.8889V31.2136H89.8189C93.9678 31.2136 97.3271 27.0124 97.3271 21.8307C97.3271 16.649 93.9743 12.4575 89.8189 12.4575ZM56.612 23.7138H52.4177V6.7531C52.4177 3.02267 48.1161 0 42.8074 0C37.4987 0 33.194 3.02267 33.194 6.7531V31.2136H40.6924V8.70436H44.916V25.665C44.916 29.3955 49.2208 32.4214 54.5294 32.4214C59.8381 32.4214 64.1397 29.3955 64.1397 25.665V1.20128H56.612V23.7138Z" fill="white"/>
<path d="M107.665 22.1524C107.795 21.78 107.859 21.3877 107.853 20.9933H105.183V21.7692H106.944C106.871 22.1253 106.684 22.4479 106.411 22.6881C106.12 22.9282 105.751 23.052 105.374 23.0354C105.13 23.039 104.887 22.9903 104.663 22.8926C104.448 22.8028 104.254 22.669 104.094 22.4997C103.932 22.3282 103.805 22.1263 103.721 21.9056C103.539 21.4222 103.539 20.8891 103.721 20.4056C103.805 20.184 103.932 19.981 104.094 19.8082C104.254 19.639 104.448 19.5052 104.663 19.4154C104.887 19.3177 105.13 19.269 105.374 19.2725C105.649 19.2679 105.92 19.3315 106.164 19.4576C106.388 19.5751 106.583 19.7403 106.736 19.9414H107.675C107.575 19.7295 107.447 19.5319 107.295 19.3537C107.143 19.1759 106.967 19.0206 106.771 18.8927C106.571 18.7626 106.352 18.6631 106.122 18.5972C105.877 18.5253 105.623 18.4903 105.368 18.4933C105.01 18.4892 104.655 18.5577 104.325 18.6946C104.01 18.8215 103.725 19.0116 103.487 19.2531C103.247 19.4945 103.058 19.7816 102.931 20.0972C102.661 20.7758 102.661 21.5322 102.931 22.2108C103.061 22.5256 103.251 22.8122 103.49 23.0549C103.729 23.2965 104.016 23.4866 104.332 23.6134C104.664 23.7503 105.021 23.8188 105.381 23.8147C105.711 23.817 106.038 23.7497 106.34 23.6171C106.643 23.4845 106.914 23.2896 107.135 23.0452C107.366 22.783 107.545 22.4802 107.665 22.1524ZM110.027 20.2043C109.86 20.2718 109.715 20.3842 109.608 20.529V20.0907H108.792V23.714H109.608V21.9705C109.595 21.6753 109.697 21.3865 109.894 21.1654C110.001 21.0596 110.129 20.9777 110.27 20.925C110.411 20.8724 110.562 20.8503 110.712 20.8602H111.037V20.081H110.712C110.477 20.0745 110.242 20.1211 110.027 20.2173V20.2043ZM112.775 23.6588C113.019 23.7569 113.28 23.8055 113.542 23.8017C113.803 23.8053 114.061 23.7567 114.302 23.6588C114.531 23.5694 114.738 23.4347 114.913 23.2628C115.088 23.0909 115.226 22.8855 115.319 22.6588C115.418 22.4202 115.468 22.164 115.466 21.9056C115.468 21.6451 115.418 21.3868 115.319 21.1459C115.226 20.9183 115.088 20.7118 114.913 20.5388C114.738 20.3676 114.53 20.233 114.302 20.1427C114.061 20.0448 113.803 19.9962 113.542 19.9998C113.28 19.996 113.019 20.0446 112.775 20.1427C112.548 20.233 112.34 20.3676 112.165 20.5388C111.99 20.7118 111.852 20.9183 111.759 21.1459C111.659 21.3868 111.61 21.6451 111.612 21.9056C111.61 22.164 111.659 22.4202 111.759 22.6588C111.852 22.8855 111.99 23.0909 112.165 23.2628C112.339 23.4347 112.547 23.5694 112.775 23.6588ZM112.516 21.4446C112.57 21.3087 112.649 21.1842 112.749 21.0777C112.848 20.975 112.968 20.8942 113.1 20.8407C113.24 20.7826 113.391 20.7538 113.542 20.7563C113.695 20.7539 113.846 20.7826 113.987 20.8407C114.12 20.8942 114.239 20.975 114.338 21.0777C114.437 21.1845 114.514 21.309 114.566 21.4446C114.621 21.5919 114.649 21.7482 114.647 21.9056C114.649 22.0609 114.621 22.2151 114.566 22.3601C114.515 22.4936 114.437 22.6153 114.338 22.7179C114.238 22.8206 114.119 22.9021 113.987 22.9575C113.846 23.0168 113.695 23.0466 113.542 23.0452C113.39 23.0466 113.24 23.0168 113.1 22.9575C112.968 22.9017 112.849 22.82 112.749 22.7173C112.649 22.6149 112.569 22.4935 112.516 22.3601C112.459 22.2153 112.43 22.0611 112.431 21.9056C112.434 21.7578 112.462 21.6117 112.516 21.4738V21.4446ZM119.874 23.701V20.1134H119.056V21.964C119.058 22.1205 119.031 22.2759 118.974 22.4218C118.926 22.5512 118.852 22.6693 118.757 22.7692C118.664 22.8629 118.554 22.9369 118.432 22.9868C118.313 23.0345 118.186 23.0587 118.058 23.0582C117.938 23.0659 117.818 23.0476 117.706 23.0044C117.594 22.9612 117.492 22.8943 117.408 22.8082C117.255 22.6214 117.176 22.3842 117.187 22.1426V20.1134H116.369V22.2562C116.365 22.4776 116.403 22.6978 116.479 22.9056C116.55 23.0901 116.658 23.2575 116.798 23.3969C116.939 23.5362 117.107 23.6443 117.291 23.714C117.499 23.7914 117.72 23.8289 117.941 23.8244C118.172 23.8302 118.402 23.7893 118.617 23.7043C118.793 23.6366 118.948 23.5248 119.069 23.3796V23.7043L119.874 23.701ZM124.351 23.2238C124.509 23.0452 124.63 22.838 124.709 22.6134C124.79 22.383 124.832 22.1403 124.832 21.8959C124.832 21.6535 124.791 21.413 124.709 21.1848C124.629 20.9616 124.508 20.7555 124.351 20.5777C124.192 20.3979 123.996 20.254 123.776 20.1556C123.529 20.048 123.262 19.9949 122.993 19.9998C122.771 19.9976 122.551 20.0361 122.343 20.1134C122.158 20.1843 121.991 20.2952 121.853 20.4381V20.1134H121.034V25.2886H121.853V23.3828C121.989 23.5271 122.157 23.6382 122.343 23.7075C122.551 23.7875 122.771 23.8272 122.993 23.8244C123.263 23.8299 123.53 23.7756 123.776 23.6653C123.997 23.5664 124.193 23.4201 124.351 23.2367V23.2238ZM123.377 22.9543C123.239 23.0167 123.089 23.0477 122.938 23.0452C122.8 23.045 122.663 23.0219 122.532 22.977C122.398 22.9308 122.275 22.8567 122.171 22.7595C122.065 22.6585 121.979 22.537 121.921 22.4023C121.796 22.0786 121.796 21.7196 121.921 21.3959C121.975 21.262 122.058 21.1415 122.163 21.0428C122.269 20.9441 122.395 20.8696 122.532 20.8245C122.663 20.7795 122.8 20.7565 122.938 20.7563C123.089 20.7537 123.239 20.7848 123.377 20.8472C123.505 20.9071 123.621 20.9919 123.717 21.0967C123.813 21.2014 123.887 21.3241 123.935 21.4576C123.987 21.5978 124.014 21.7463 124.013 21.8959C124.014 22.0475 123.987 22.1981 123.935 22.3407C123.887 22.4765 123.812 22.6013 123.714 22.7075C123.62 22.8149 123.505 22.9031 123.377 22.9673V22.9543ZM129.403 23.6588C129.896 23.8494 130.441 23.8494 130.934 23.6588C131.161 23.5685 131.368 23.4335 131.542 23.2617C131.716 23.0899 131.854 22.8849 131.947 22.6588C132.046 22.4202 132.096 22.164 132.093 21.9056C132.096 21.6451 132.046 21.3868 131.947 21.1459C131.855 20.9189 131.717 20.7131 131.543 20.5406C131.369 20.3682 131.161 20.2328 130.934 20.1427C130.441 19.9521 129.896 19.9521 129.403 20.1427C129.176 20.2338 128.968 20.3684 128.792 20.5388C128.619 20.712 128.482 20.9185 128.39 21.1459C128.289 21.3866 128.239 21.6449 128.24 21.9056C128.239 22.1642 128.289 22.4204 128.39 22.6588C128.482 22.8848 128.619 23.0901 128.792 23.2627C128.967 23.4378 129.175 23.5768 129.403 23.6718V23.6588ZM129.147 21.4446C129.2 21.3088 129.278 21.1843 129.377 21.0777C129.476 20.975 129.596 20.8942 129.728 20.8407C130.013 20.728 130.33 20.728 130.615 20.8407C130.747 20.8942 130.867 20.975 130.966 21.0777C131.065 21.1836 131.143 21.3084 131.193 21.4446C131.249 21.5919 131.277 21.7482 131.275 21.9056C131.277 22.0609 131.249 22.2151 131.193 22.3601C131.143 22.4938 131.066 22.6154 130.966 22.7173C130.866 22.82 130.747 22.9017 130.615 22.9575C130.331 23.0743 130.012 23.0743 129.728 22.9575C129.596 22.9015 129.477 22.8198 129.377 22.7173C129.277 22.6147 129.199 22.4933 129.147 22.3601C129.087 22.216 129.058 22.0614 129.059 21.9056C129.061 21.7575 129.091 21.6111 129.147 21.4738V21.4446ZM133.256 23.701H134.075V20.8245H135.199V20.1069H134.075V19.7823C134.072 19.7151 134.083 19.6481 134.107 19.5851C134.13 19.5222 134.166 19.4645 134.212 19.4154C134.268 19.3641 134.334 19.325 134.406 19.3004C134.478 19.2759 134.555 19.2664 134.631 19.2725H135.199V18.5518H134.631C134.429 18.5479 134.228 18.5775 134.036 18.6394C133.88 18.6886 133.735 18.7692 133.611 18.8765C133.496 18.9796 133.406 19.1072 133.347 19.2498C133.288 19.3975 133.259 19.5551 133.26 19.7141V20.1004H132.594V20.8245H133.26L133.256 23.701ZM103.86 28.571C103.955 28.4673 104.072 28.3853 104.202 28.3308C104.342 28.2739 104.492 28.2452 104.643 28.2464C104.82 28.2438 104.994 28.2851 105.15 28.3665C105.303 28.4445 105.432 28.5637 105.521 28.7107H106.378C106.315 28.5291 106.224 28.3584 106.109 28.2042C105.997 28.0556 105.864 27.9252 105.712 27.8178C105.398 27.6014 105.025 27.488 104.643 27.4931C104.384 27.491 104.127 27.5395 103.886 27.636C103.66 27.7276 103.455 27.8634 103.282 28.0353C103.111 28.2077 102.975 28.4117 102.883 28.636C102.783 28.8757 102.734 29.133 102.736 29.3925C102.734 29.6529 102.783 29.9113 102.883 30.1522C102.974 30.3783 103.11 30.5837 103.282 30.7561C103.455 30.9285 103.66 31.0643 103.886 31.1554C104.127 31.2519 104.384 31.3004 104.643 31.2983C105.025 31.3034 105.398 31.19 105.712 30.9736C105.864 30.8662 105.997 30.7358 106.109 30.5872C106.224 30.4331 106.315 30.2623 106.378 30.0808H105.521C105.432 30.2277 105.303 30.3469 105.15 30.4249C104.994 30.5064 104.82 30.5476 104.643 30.545C104.497 30.5493 104.352 30.5226 104.217 30.4666C104.082 30.4107 103.961 30.3267 103.86 30.2204C103.762 30.1155 103.686 29.9918 103.636 29.8567C103.581 29.7117 103.553 29.5575 103.555 29.4022C103.553 29.2469 103.58 29.0925 103.636 28.9477C103.687 28.8172 103.763 28.6981 103.86 28.597V28.571ZM110.358 28.0321C110.182 27.8607 109.975 27.7251 109.747 27.6328C109.506 27.5366 109.247 27.4881 108.987 27.4899C108.724 27.4875 108.462 27.536 108.217 27.6328C107.99 27.7244 107.784 27.8601 107.61 28.0321C107.435 28.2039 107.297 28.4094 107.204 28.636C107.105 28.8769 107.055 29.1352 107.057 29.3957C107.055 29.6551 107.104 29.9124 107.204 30.1522C107.298 30.3775 107.436 30.5818 107.61 30.7535C107.784 30.9251 107.991 31.0606 108.217 31.1522C108.462 31.2489 108.724 31.2974 108.987 31.295C109.247 31.2968 109.506 31.2483 109.747 31.1522C109.975 31.0619 110.182 30.9268 110.356 30.755C110.53 30.5832 110.668 30.3782 110.761 30.1522C110.86 29.9124 110.91 29.6551 110.907 29.3957C110.91 29.1352 110.86 28.8769 110.761 28.636C110.667 28.42 110.532 28.2238 110.365 28.0581L110.358 28.0321ZM110.011 29.8502C109.96 29.985 109.881 30.1078 109.78 30.2106C109.679 30.3123 109.56 30.3938 109.429 30.4509C109.289 30.5101 109.139 30.54 108.987 30.5385C108.839 30.5413 108.693 30.5139 108.556 30.4581C108.419 30.4022 108.295 30.3192 108.191 30.2139C108.091 30.1102 108.013 29.9877 107.961 29.8535C107.902 29.7093 107.873 29.5546 107.876 29.3989C107.874 29.2423 107.902 29.0867 107.961 28.9412C108.013 28.805 108.091 28.6804 108.191 28.5743C108.29 28.4705 108.41 28.3887 108.542 28.334C108.684 28.2774 108.835 28.2487 108.987 28.2496C109.139 28.2488 109.289 28.2774 109.429 28.334C109.562 28.3887 109.681 28.4705 109.78 28.5743C109.881 28.6795 109.96 28.8044 110.011 28.9412C110.064 29.0879 110.09 29.2429 110.089 29.3989C110.095 29.5611 110.071 29.7231 110.017 29.8762L110.011 29.8502ZM117.577 27.9022C117.437 27.7614 117.269 27.6509 117.083 27.5776C116.876 27.4998 116.655 27.4613 116.434 27.4639C116.158 27.4563 115.885 27.5165 115.638 27.6392C115.426 27.743 115.24 27.8915 115.092 28.0743C114.947 27.869 114.75 27.7048 114.523 27.5978C114.295 27.4908 114.043 27.4447 113.792 27.4639C113.569 27.4601 113.347 27.5044 113.143 27.5938C112.976 27.6608 112.826 27.7639 112.704 27.8957V27.5711H111.875V31.2138H112.694V29.347C112.691 29.1938 112.719 29.0415 112.775 28.899C112.824 28.773 112.895 28.6573 112.987 28.5581C113.079 28.4655 113.19 28.3926 113.312 28.3438C113.428 28.2922 113.554 28.2657 113.682 28.2659C113.801 28.2569 113.921 28.274 114.034 28.316C114.146 28.3581 114.248 28.4241 114.332 28.5094C114.478 28.6933 114.553 28.9239 114.543 29.1587V31.2138H115.362V29.3632C115.358 29.2057 115.386 29.0492 115.443 28.9022C115.492 28.7745 115.566 28.6576 115.66 28.5581C115.753 28.4651 115.863 28.3922 115.985 28.3438C116.102 28.292 116.228 28.2654 116.356 28.2659C116.475 28.2569 116.595 28.274 116.707 28.316C116.82 28.3581 116.921 28.4241 117.006 28.5094C117.152 28.6933 117.227 28.9239 117.217 29.1587V31.2138H118.016V29.0613C118.02 28.8396 117.981 28.6192 117.902 28.412C117.831 28.2342 117.722 28.0736 117.584 27.9412L117.577 27.9022ZM122.451 28.0581C122.292 27.8772 122.096 27.7332 121.876 27.636C121.629 27.5273 121.362 27.473 121.093 27.4769C120.871 27.4745 120.65 27.5142 120.443 27.5938C120.258 27.6645 120.092 27.7754 119.955 27.9185V27.5938H119.137V32.769H119.965V30.8892C120.102 31.0322 120.268 31.1431 120.453 31.2138C120.66 31.2935 120.88 31.3331 121.102 31.3307C121.372 31.3346 121.639 31.2804 121.885 31.1716C122.105 31.0733 122.301 30.9294 122.46 30.7496C122.617 30.5721 122.737 30.3659 122.815 30.1424C122.897 29.9124 122.939 29.6695 122.938 29.4249C122.939 29.1814 122.898 28.9396 122.815 28.7107C122.737 28.4851 122.617 28.2767 122.46 28.097L122.451 28.0581ZM122.035 29.8178C121.987 29.9537 121.912 30.0786 121.814 30.1846C121.718 30.2891 121.602 30.3731 121.473 30.4314C121.336 30.4949 121.188 30.527 121.037 30.5255C120.898 30.5261 120.759 30.502 120.628 30.4541C120.497 30.4097 120.376 30.339 120.273 30.2463C120.171 30.1536 120.088 30.0409 120.03 29.9152C119.964 29.7558 119.932 29.5844 119.936 29.4119C119.933 29.2396 119.965 29.0684 120.03 28.9087C120.085 28.7718 120.17 28.6495 120.28 28.5516C120.384 28.4575 120.505 28.3857 120.638 28.3405C120.769 28.2927 120.908 28.2685 121.047 28.2691C121.197 28.2676 121.346 28.2998 121.482 28.3633C121.612 28.4215 121.728 28.5055 121.824 28.61C121.92 28.7147 121.995 28.8371 122.045 28.9704C122.094 29.1123 122.12 29.2616 122.119 29.4119C122.12 29.5634 122.094 29.7137 122.045 29.8567L122.035 29.8178ZM126.625 27.9087C126.489 27.7664 126.322 27.6557 126.138 27.5841C125.931 27.5044 125.71 27.4648 125.488 27.4672C125.219 27.4633 124.952 27.5175 124.705 27.6263C124.485 27.7235 124.289 27.8675 124.13 28.0483C123.973 28.225 123.852 28.4315 123.776 28.6555C123.693 28.8855 123.651 29.1284 123.653 29.373C123.651 29.6165 123.693 29.8583 123.776 30.0872C123.853 30.3099 123.974 30.5152 124.13 30.6911C124.29 30.871 124.486 31.0148 124.705 31.1132C124.952 31.2219 125.219 31.2762 125.488 31.2723C125.71 31.2747 125.931 31.235 126.138 31.1554C126.322 31.0838 126.489 30.973 126.625 30.8307V31.1554H127.444V27.5516H126.625V27.9087ZM126.564 29.886C126.508 30.0224 126.423 30.1445 126.314 30.2431C126.21 30.3372 126.089 30.409 125.956 30.4541C125.825 30.5014 125.686 30.5255 125.547 30.5255C125.397 30.527 125.248 30.4949 125.111 30.4314C124.982 30.3731 124.866 30.2891 124.77 30.1846C124.674 30.0799 124.599 29.9575 124.549 29.8243C124.497 29.683 124.471 29.5334 124.471 29.3827C124.471 29.2321 124.497 29.0825 124.549 28.9412C124.597 28.8052 124.673 28.6804 124.77 28.5743C124.866 28.4698 124.982 28.3858 125.111 28.3275C125.248 28.2641 125.397 28.2319 125.547 28.2334C125.686 28.2334 125.825 28.2576 125.956 28.3048C126.089 28.3497 126.211 28.4228 126.314 28.5191C126.423 28.6204 126.508 28.7446 126.564 28.8827C126.629 29.0413 126.661 29.2114 126.658 29.3827C126.668 29.5642 126.639 29.7457 126.573 29.9152L126.564 29.886ZM131.72 27.9055C131.576 27.7635 131.405 27.6529 131.216 27.5808C131.008 27.5036 130.788 27.4651 130.566 27.4672C130.331 27.4631 130.097 27.5039 129.878 27.5873C129.699 27.6557 129.541 27.7672 129.416 27.912V27.5873H128.598V31.2138H129.416V29.3632C129.414 29.2055 129.443 29.0489 129.501 28.9022C129.555 28.7742 129.63 28.6566 129.725 28.5548C129.817 28.4616 129.928 28.3887 130.05 28.3405C130.173 28.2915 130.304 28.2661 130.436 28.2659C130.561 28.2564 130.686 28.2739 130.803 28.317C130.92 28.3602 131.027 28.428 131.115 28.5159C131.271 28.703 131.351 28.9416 131.34 29.1847V31.2138H132.158V29.0678C132.162 28.8461 132.124 28.6257 132.045 28.4185C131.973 28.2406 131.866 28.0793 131.729 27.9444L131.72 27.9055ZM133.191 26.8763H134.111V25.9445H133.191V26.8763ZM133.247 31.1814H134.065V27.5776H133.247V31.1814ZM138.237 28.0191C138.074 27.8477 137.877 27.7118 137.659 27.6198C137.425 27.5232 137.174 27.4747 136.921 27.4769C136.66 27.4728 136.401 27.5237 136.161 27.6263C135.938 27.7184 135.736 27.8542 135.566 28.0256C135.396 28.1968 135.264 28.4013 135.177 28.6262C135.082 28.8648 135.034 29.1195 135.037 29.3762C135.034 29.6378 135.084 29.8973 135.183 30.1392C135.276 30.3642 135.413 30.5684 135.586 30.7398C135.758 30.9125 135.964 31.0484 136.19 31.1392C136.435 31.2359 136.697 31.2845 136.96 31.282C137.338 31.2866 137.709 31.1793 138.026 30.9736C138.334 30.7724 138.568 30.4775 138.695 30.1327H137.834C137.748 30.2642 137.625 30.3671 137.48 30.4281C137.324 30.4943 137.156 30.5275 136.986 30.5255C136.73 30.5317 136.479 30.4478 136.278 30.2885C136.082 30.1348 135.952 29.9136 135.911 29.6684H138.76C138.77 29.6149 138.776 29.5606 138.776 29.5061V29.3438C138.778 29.0938 138.732 28.8457 138.64 28.6132C138.545 28.4051 138.412 28.2168 138.247 28.0581L138.237 28.0191ZM135.901 29.0126C135.916 28.8979 135.954 28.7873 136.013 28.6875C136.071 28.5877 136.149 28.5006 136.242 28.4314C136.437 28.2829 136.676 28.2051 136.921 28.2107C137.155 28.1971 137.385 28.2721 137.566 28.4208C137.746 28.5695 137.864 28.7808 137.896 29.0126H135.901ZM142.639 29.3567C142.37 29.1668 142.05 29.0606 141.72 29.0515L141.034 28.9964C140.864 28.988 140.697 28.9496 140.54 28.8827C140.488 28.8601 140.444 28.8223 140.413 28.7743C140.382 28.7263 140.367 28.6702 140.368 28.6132C140.367 28.5447 140.386 28.4772 140.423 28.4195C140.46 28.3617 140.513 28.3161 140.576 28.2886C140.75 28.2072 140.94 28.1693 141.132 28.1782C141.343 28.1721 141.554 28.2074 141.752 28.2821C141.908 28.3438 142.035 28.4589 142.113 28.6068H143C142.954 28.4455 142.881 28.293 142.785 28.1555C142.685 28.0115 142.558 27.8881 142.412 27.7918C142.243 27.6848 142.059 27.6049 141.866 27.5548C141.632 27.4908 141.39 27.4602 141.148 27.4639C140.923 27.4605 140.698 27.4911 140.482 27.5548C140.3 27.6044 140.129 27.6882 139.978 27.8016C139.844 27.8989 139.733 28.0255 139.654 28.1717C139.579 28.3127 139.54 28.4699 139.54 28.6295C139.53 28.7673 139.552 28.9054 139.605 29.0332C139.657 29.161 139.738 29.2751 139.842 29.3665C140.105 29.561 140.419 29.674 140.745 29.6911L141.479 29.7626C141.649 29.7704 141.815 29.8101 141.97 29.8795C142.022 29.9056 142.065 29.9462 142.094 29.9963C142.124 30.0464 142.138 30.1039 142.136 30.1619C142.136 30.2286 142.115 30.2937 142.077 30.3483C142.038 30.4029 141.984 30.4444 141.921 30.4671C141.756 30.5411 141.576 30.5767 141.395 30.571C141.154 30.5801 140.914 30.5392 140.69 30.4509C140.608 30.4175 140.534 30.3677 140.472 30.3046C140.41 30.2415 140.361 30.1665 140.329 30.084H139.459C139.54 30.4394 139.755 30.7498 140.06 30.9509C140.441 31.1859 140.886 31.2991 141.333 31.2755C141.567 31.2796 141.8 31.249 142.025 31.1846C142.21 31.135 142.385 31.0537 142.542 30.9444C142.677 30.8484 142.788 30.723 142.867 30.5775C142.941 30.4353 142.979 30.2769 142.977 30.1165C142.979 29.9795 142.951 29.8439 142.894 29.7192C142.837 29.5946 142.754 29.4841 142.649 29.3957L142.639 29.3567Z" fill="white"/>
</svg>
