<svg width="155" height="36" viewBox="0 0 155 36" fill="none" xmlns="http://www.w3.org/2000/svg">
<path d="M24.9522 13.904H9.39695V9.85491H31.7589V1.76033H8.10009C3.62769 1.76033 0 6.28924 0 11.8794C0 17.4696 3.62769 21.9985 8.10009 21.9985H23.6589V26.0476H1.29685V34.1386H24.9522C29.4281 34.1386 33.0558 29.6062 33.0558 24.016C33.0558 18.4258 29.4281 13.904 24.9522 13.904ZM96.8997 13.904H81.3444V9.85491H103.706V1.76033H80.0475C75.5716 1.76033 71.944 6.28924 71.944 11.8794C71.944 17.4696 75.5716 21.9985 80.0475 21.9985H95.6028V26.0476H73.2408V34.1386H96.8997C101.376 34.1386 105 29.6062 105 24.016C105 18.4258 101.383 13.904 96.8997 13.904V13.904ZM61.0749 26.0476H56.5499V7.74983C56.5499 3.72531 51.9093 0.464355 46.1821 0.464355C40.4549 0.464355 35.8107 3.72531 35.8107 7.74983V34.1386H43.9003V9.85491H48.4568V28.1526C48.4568 32.1772 53.101 35.4416 58.8282 35.4416C64.5554 35.4416 69.196 32.1772 69.196 28.1526V1.76033H61.0749V26.0476Z" fill="#565259"/>
<path d="M116.153 24.3627C116.293 23.961 116.362 23.5378 116.356 23.1123H113.475V23.9494H115.375C115.296 24.3335 115.094 24.6816 114.8 24.9406C114.486 25.1997 114.088 25.3333 113.682 25.3154C113.418 25.3192 113.156 25.2667 112.914 25.1613C112.682 25.0644 112.473 24.92 112.301 24.7375C112.125 24.5524 111.988 24.3346 111.898 24.0965C111.701 23.5749 111.701 22.9998 111.898 22.4783C111.988 22.2392 112.125 22.0202 112.301 21.8338C112.473 21.6512 112.682 21.5069 112.914 21.41C113.156 21.3046 113.418 21.252 113.682 21.2559C113.978 21.2509 114.27 21.3195 114.533 21.4555C114.775 21.5823 114.985 21.7605 115.15 21.9774H116.163C116.055 21.7488 115.917 21.5357 115.753 21.3434C115.59 21.1516 115.4 20.9841 115.189 20.8461C114.972 20.7058 114.736 20.5984 114.488 20.5273C114.224 20.4497 113.95 20.412 113.675 20.4152C113.289 20.4107 112.906 20.4846 112.549 20.6324C112.21 20.7692 111.902 20.9743 111.645 21.2348C111.386 21.4953 111.183 21.805 111.046 22.1455C110.754 22.8776 110.754 23.6937 111.046 24.4257C111.186 24.7653 111.391 25.0746 111.649 25.3364C111.907 25.5971 112.216 25.8021 112.556 25.9389C112.915 26.0866 113.3 26.1605 113.689 26.156C114.045 26.1586 114.397 26.0859 114.724 25.9429C115.05 25.7998 115.342 25.5896 115.581 25.3259C115.83 25.0431 116.024 24.7164 116.153 24.3627ZM118.701 22.2611C118.521 22.3339 118.364 22.4551 118.249 22.6114V22.1385H117.369V26.0475H118.249V24.1665C118.235 23.848 118.345 23.5365 118.557 23.2979C118.673 23.1837 118.811 23.0954 118.963 23.0386C119.116 22.9819 119.278 22.958 119.44 22.9686H119.791V22.128H119.44C119.186 22.121 118.933 22.1713 118.701 22.2751V22.2611ZM121.666 25.9879C121.929 26.0937 122.21 26.1461 122.493 26.142C122.774 26.1459 123.053 26.0935 123.313 25.9879C123.56 25.8914 123.784 25.7461 123.972 25.5607C124.161 25.3753 124.31 25.1536 124.41 24.9091C124.517 24.6517 124.571 24.3752 124.568 24.0965C124.571 23.8155 124.517 23.5368 124.41 23.2769C124.31 23.0313 124.161 22.8085 123.972 22.6219C123.783 22.4373 123.559 22.292 123.313 22.1946C123.053 22.089 122.774 22.0366 122.493 22.0404C122.21 22.0364 121.929 22.0888 121.666 22.1946C121.42 22.292 121.196 22.4373 121.007 22.6219C120.818 22.8085 120.669 23.0313 120.569 23.2769C120.462 23.5368 120.408 23.8155 120.411 24.0965C120.408 24.3752 120.462 24.6517 120.569 24.9091C120.669 25.1536 120.818 25.3753 121.007 25.5607C121.196 25.7461 121.42 25.8914 121.666 25.9879ZM121.386 23.5991C121.444 23.4525 121.53 23.3182 121.638 23.2033C121.745 23.0925 121.874 23.0054 122.017 22.9476C122.167 22.8849 122.33 22.8539 122.493 22.8566C122.658 22.8539 122.821 22.8849 122.973 22.9476C123.116 23.0054 123.245 23.0925 123.352 23.2033C123.458 23.3185 123.541 23.4529 123.597 23.5991C123.657 23.758 123.687 23.9267 123.685 24.0965C123.687 24.264 123.657 24.4304 123.597 24.5869C123.542 24.7308 123.458 24.8621 123.351 24.9729C123.244 25.0836 123.116 25.1716 122.973 25.2313C122.821 25.2953 122.658 25.3274 122.493 25.3259C122.329 25.3274 122.167 25.2953 122.017 25.2313C121.874 25.1711 121.746 25.0829 121.638 24.9721C121.529 24.8618 121.443 24.7308 121.386 24.5869C121.324 24.4306 121.294 24.2642 121.294 24.0965C121.297 23.9371 121.328 23.7794 121.386 23.6306V23.5991ZM129.324 26.0334V22.163H128.441V24.1595C128.444 24.3283 128.414 24.496 128.354 24.6534C128.301 24.7929 128.222 24.9204 128.119 25.0282C128.019 25.1293 127.9 25.2091 127.768 25.2629C127.64 25.3143 127.503 25.3405 127.365 25.3399C127.236 25.3483 127.106 25.3285 126.985 25.2819C126.864 25.2353 126.755 25.1631 126.664 25.0702C126.498 24.8687 126.413 24.6128 126.426 24.3522V22.163H125.543V24.4748C125.539 24.7136 125.579 24.9511 125.662 25.1753C125.738 25.3743 125.855 25.555 126.006 25.7053C126.157 25.8557 126.338 25.9723 126.538 26.0475C126.762 26.131 127 26.1714 127.239 26.1665C127.488 26.1728 127.736 26.1287 127.968 26.0369C128.158 25.9639 128.326 25.8433 128.455 25.6867V26.0369L129.324 26.0334ZM134.154 25.5186C134.324 25.326 134.455 25.1024 134.54 24.8601C134.628 24.6115 134.673 24.3497 134.673 24.086C134.673 23.8245 134.628 23.565 134.54 23.3189C134.454 23.0781 134.323 22.8558 134.154 22.6639C133.982 22.4699 133.771 22.3147 133.534 22.2086C133.268 22.0925 132.98 22.0351 132.689 22.0404C132.45 22.038 132.212 22.0796 131.988 22.163C131.788 22.2395 131.608 22.3591 131.459 22.5133V22.163H130.576V27.7462H131.459V25.6902C131.606 25.8458 131.787 25.9657 131.988 26.0405C132.212 26.1268 132.45 26.1696 132.689 26.1665C132.98 26.1725 133.269 26.1139 133.534 25.9949C133.772 25.8882 133.984 25.7304 134.154 25.5326V25.5186ZM133.103 25.2278C132.954 25.2952 132.793 25.3287 132.63 25.3259C132.481 25.3257 132.333 25.3008 132.192 25.2524C132.047 25.2025 131.914 25.1225 131.803 25.0177C131.687 24.9088 131.596 24.7777 131.533 24.6324C131.397 24.2831 131.397 23.8959 131.533 23.5466C131.591 23.4022 131.68 23.2722 131.794 23.1657C131.908 23.0592 132.043 22.9788 132.192 22.9301C132.333 22.8816 132.481 22.8568 132.63 22.8566C132.793 22.8538 132.954 22.8873 133.103 22.9546C133.242 23.0193 133.367 23.1108 133.47 23.2238C133.573 23.3368 133.654 23.4691 133.706 23.6131C133.762 23.7644 133.79 23.9246 133.79 24.086C133.79 24.2496 133.762 24.412 133.706 24.5659C133.654 24.7124 133.573 24.847 133.467 24.9616C133.365 25.0775 133.241 25.1726 133.103 25.2419V25.2278ZM139.605 25.9879C140.136 26.1935 140.724 26.1935 141.256 25.9879C141.501 25.8905 141.724 25.7448 141.912 25.5595C142.1 25.3741 142.248 25.153 142.349 24.9091C142.456 24.6517 142.51 24.3752 142.507 24.0965C142.51 23.8155 142.456 23.5368 142.349 23.2769C142.249 23.032 142.101 22.8099 141.913 22.6239C141.725 22.4379 141.501 22.2919 141.256 22.1946C140.724 21.989 140.136 21.989 139.605 22.1946C139.359 22.2929 139.136 22.4381 138.946 22.6219C138.758 22.8087 138.61 23.0315 138.511 23.2769C138.403 23.5365 138.348 23.8153 138.35 24.0965C138.348 24.3755 138.403 24.6519 138.511 24.9091C138.611 25.1529 138.759 25.3744 138.946 25.5606C139.134 25.7494 139.358 25.8994 139.605 26.0019V25.9879ZM139.328 23.5991C139.385 23.4527 139.469 23.3183 139.577 23.2033C139.683 23.0925 139.812 23.0054 139.955 22.9476C140.263 22.8261 140.605 22.8261 140.912 22.9476C141.055 23.0054 141.184 23.0925 141.291 23.2033C141.398 23.3176 141.481 23.4522 141.536 23.5991C141.596 23.758 141.626 23.9267 141.624 24.0965C141.626 24.264 141.596 24.4304 141.536 24.5869C141.482 24.731 141.398 24.8623 141.291 24.9721C141.183 25.0829 141.054 25.1711 140.912 25.2313C140.606 25.3573 140.262 25.3573 139.955 25.2313C139.813 25.1709 139.684 25.0828 139.577 24.9722C139.469 24.8615 139.384 24.7305 139.328 24.5869C139.264 24.4313 139.232 24.2646 139.233 24.0965C139.236 23.9367 139.268 23.7788 139.328 23.6306V23.5991ZM143.762 26.0334H144.645V22.9301H145.858V22.156H144.645V21.8058C144.642 21.7333 144.653 21.661 144.679 21.5931C144.704 21.5251 144.743 21.4629 144.792 21.41C144.853 21.3547 144.924 21.3125 145.002 21.286C145.08 21.2594 145.162 21.2492 145.244 21.2559H145.858V20.4783H145.244C145.027 20.4741 144.81 20.506 144.603 20.5728C144.434 20.6259 144.278 20.7129 144.144 20.8285C144.02 20.9399 143.923 21.0775 143.86 21.2313C143.796 21.3906 143.764 21.5607 143.765 21.7322V22.149H143.047V22.9301H143.765L143.762 26.0334ZM112.048 31.2874C112.151 31.1754 112.276 31.087 112.416 31.0282C112.568 30.9668 112.73 30.9358 112.893 30.9371C113.083 30.9343 113.271 30.9789 113.44 31.0667C113.605 31.1509 113.743 31.2795 113.839 31.438H114.765C114.696 31.2422 114.598 31.0579 114.474 30.8916C114.354 30.7313 114.209 30.5907 114.046 30.4748C113.707 30.2413 113.304 30.1189 112.893 30.1245C112.613 30.1222 112.336 30.1746 112.076 30.2786C111.832 30.3775 111.611 30.5239 111.424 30.7095C111.24 30.8954 111.094 31.1155 110.993 31.3574C110.886 31.6161 110.833 31.8937 110.836 32.1736C110.833 32.4546 110.886 32.7333 110.993 32.9932C111.092 33.2371 111.238 33.4587 111.424 33.6447C111.61 33.8307 111.832 33.9772 112.076 34.0755C112.336 34.1796 112.613 34.2319 112.893 34.2296C113.304 34.2352 113.707 34.1128 114.046 33.8793C114.209 33.7634 114.354 33.6228 114.474 33.4625C114.598 33.2962 114.696 33.1119 114.765 32.9161H113.839C113.743 33.0746 113.605 33.2032 113.44 33.2874C113.271 33.3753 113.083 33.4198 112.893 33.417C112.735 33.4216 112.579 33.3928 112.433 33.3324C112.287 33.272 112.156 33.1815 112.048 33.0667C111.942 32.9536 111.86 32.8201 111.806 32.6744C111.746 32.518 111.717 32.3516 111.719 32.1841C111.716 32.0165 111.746 31.85 111.806 31.6937C111.861 31.553 111.944 31.4244 112.048 31.3154V31.2874ZM119.058 30.706C118.869 30.5211 118.645 30.3748 118.399 30.2751C118.138 30.1714 117.86 30.119 117.579 30.121C117.295 30.1184 117.013 30.1707 116.748 30.2751C116.504 30.374 116.281 30.5204 116.093 30.706C115.904 30.8913 115.755 31.113 115.655 31.3574C115.548 31.6174 115.494 31.8961 115.497 32.1771C115.494 32.4569 115.548 32.7345 115.655 32.9932C115.757 33.2362 115.906 33.4567 116.094 33.6418C116.281 33.827 116.504 33.9732 116.748 34.072C117.013 34.1764 117.295 34.2287 117.579 34.2261C117.86 34.2281 118.138 34.1757 118.399 34.072C118.645 33.9746 118.868 33.8289 119.056 33.6435C119.244 33.4582 119.392 33.237 119.493 32.9932C119.6 32.7345 119.654 32.4569 119.651 32.1771C119.653 31.8961 119.6 31.6174 119.493 31.3574C119.391 31.1244 119.246 30.9128 119.065 30.734L119.058 30.706ZM118.683 32.6674C118.628 32.8129 118.543 32.9453 118.434 33.0562C118.326 33.1659 118.197 33.2539 118.056 33.3154C117.905 33.3793 117.743 33.4115 117.579 33.41C117.42 33.4129 117.261 33.3834 117.114 33.3232C116.966 33.263 116.832 33.1733 116.72 33.0597C116.613 32.9479 116.528 32.8157 116.472 32.6709C116.408 32.5154 116.377 32.3485 116.38 32.1806C116.378 32.0115 116.409 31.8437 116.472 31.6867C116.528 31.5398 116.612 31.4053 116.72 31.2909C116.827 31.179 116.956 31.0907 117.099 31.0317C117.252 30.9706 117.415 30.9397 117.579 30.9406C117.742 30.9397 117.904 30.9706 118.056 31.0317C118.199 31.0907 118.328 31.179 118.434 31.2909C118.544 31.4044 118.628 31.5392 118.683 31.6867C118.74 31.845 118.769 32.0123 118.767 32.1806C118.775 32.3555 118.749 32.5303 118.69 32.6954L118.683 32.6674ZM126.846 30.5658C126.695 30.4139 126.513 30.2947 126.314 30.2156C126.09 30.1317 125.852 30.0901 125.613 30.093C125.315 30.0848 125.02 30.1497 124.754 30.2821C124.526 30.3941 124.325 30.5542 124.165 30.7515C124.008 30.53 123.797 30.3529 123.551 30.2374C123.305 30.122 123.034 30.0723 122.763 30.093C122.522 30.0889 122.283 30.1366 122.062 30.2331C121.882 30.3054 121.721 30.4166 121.589 30.5588V30.2086H120.695V34.1385H121.578V32.1245C121.575 31.9592 121.605 31.7949 121.666 31.6412C121.718 31.5052 121.795 31.3804 121.894 31.2734C121.994 31.1736 122.113 31.0949 122.244 31.0422C122.37 30.9866 122.506 30.958 122.644 30.9581C122.773 30.9484 122.902 30.9669 123.023 31.0123C123.144 31.0576 123.254 31.1288 123.345 31.2208C123.503 31.4192 123.584 31.668 123.573 31.9214V34.1385H124.456V32.142C124.453 31.9721 124.482 31.8032 124.544 31.6447C124.597 31.5068 124.677 31.3807 124.778 31.2734C124.878 31.1731 124.997 31.0944 125.129 31.0422C125.255 30.9863 125.391 30.9577 125.529 30.9581C125.657 30.9484 125.787 30.9669 125.908 31.0123C126.029 31.0576 126.139 31.1288 126.23 31.2208C126.388 31.4192 126.468 31.668 126.457 31.9214V34.1385H127.32V31.8163C127.324 31.5771 127.282 31.3394 127.197 31.1158C127.12 30.9239 127.003 30.7508 126.853 30.6079L126.846 30.5658ZM132.104 30.734C131.933 30.5389 131.721 30.3835 131.484 30.2786C131.218 30.1613 130.929 30.1028 130.639 30.107C130.399 30.1044 130.161 30.1472 129.938 30.2331C129.739 30.3094 129.559 30.4291 129.412 30.5834V30.2331H128.529V35.8163H129.423V33.7883C129.57 33.9426 129.749 34.0622 129.948 34.1385C130.172 34.2244 130.41 34.2672 130.649 34.2646C130.94 34.2688 131.228 34.2103 131.494 34.093C131.731 33.9869 131.942 33.8317 132.114 33.6377C132.283 33.4462 132.413 33.2237 132.496 32.9827C132.586 32.7344 132.631 32.4724 132.63 32.2086C132.631 31.9459 132.586 31.685 132.496 31.438C132.413 31.1947 132.283 30.9699 132.114 30.776L132.104 30.734ZM131.655 32.6324C131.603 32.7791 131.522 32.9137 131.417 33.0282C131.314 33.1409 131.188 33.2315 131.049 33.2944C130.902 33.3629 130.741 33.3976 130.579 33.396C130.429 33.3966 130.279 33.3705 130.138 33.3189C129.996 33.271 129.866 33.1947 129.755 33.0947C129.644 32.9947 129.555 32.8732 129.493 32.7375C129.422 32.5655 129.387 32.3806 129.391 32.1946C129.388 32.0086 129.422 31.8239 129.493 31.6517C129.551 31.504 129.644 31.372 129.763 31.2664C129.874 31.1649 130.005 31.0874 130.148 31.0387C130.29 30.9871 130.439 30.961 130.59 30.9616C130.752 30.96 130.912 30.9948 131.059 31.0632C131.199 31.1261 131.324 31.2167 131.427 31.3294C131.531 31.4424 131.612 31.5744 131.666 31.7182C131.719 31.8713 131.747 32.0324 131.746 32.1946C131.747 32.3579 131.72 32.5202 131.666 32.6744L131.655 32.6324ZM136.608 30.5729C136.46 30.4194 136.281 30.2998 136.082 30.2226C135.859 30.1367 135.621 30.0939 135.381 30.0965C135.09 30.0923 134.802 30.1508 134.536 30.2681C134.299 30.373 134.087 30.5284 133.916 30.7235C133.746 30.9141 133.616 31.1368 133.534 31.3785C133.444 31.6267 133.399 31.8887 133.401 32.1525C133.399 32.4153 133.444 32.6762 133.534 32.9231C133.617 33.1633 133.747 33.3848 133.916 33.5746C134.088 33.7686 134.3 33.9238 134.536 34.0299C134.802 34.1473 135.09 34.2058 135.381 34.2016C135.621 34.2042 135.859 34.1614 136.082 34.0755C136.281 33.9982 136.46 33.8787 136.608 33.7252V34.0755H137.491V30.1876H136.608V30.5729ZM136.541 32.706C136.482 32.8531 136.389 32.9848 136.271 33.0912C136.16 33.1927 136.029 33.2702 135.886 33.3189C135.744 33.3699 135.595 33.396 135.444 33.396C135.282 33.3976 135.122 33.3629 134.975 33.2944C134.835 33.2315 134.71 33.1409 134.607 33.0282C134.503 32.9152 134.422 32.7832 134.368 32.6394C134.312 32.487 134.283 32.3256 134.284 32.163C134.283 32.0005 134.312 31.8392 134.368 31.6867C134.42 31.54 134.501 31.4053 134.607 31.2909C134.71 31.1781 134.835 31.0876 134.975 31.0247C135.122 30.9562 135.282 30.9215 135.444 30.9231C135.595 30.9231 135.744 30.9492 135.886 31.0002C136.03 31.0486 136.161 31.1274 136.271 31.2314C136.389 31.3406 136.481 31.4746 136.541 31.6236C136.612 31.7947 136.646 31.9782 136.643 32.163C136.654 32.3588 136.623 32.5547 136.552 32.7375L136.541 32.706ZM142.104 30.5694C141.949 30.4162 141.764 30.2969 141.56 30.2191C141.336 30.1358 141.099 30.0943 140.859 30.0965C140.606 30.0922 140.354 30.1361 140.116 30.2261C139.924 30.2999 139.753 30.4202 139.619 30.5764V30.2261H138.735V34.1385H139.619V32.142C139.616 31.9719 139.647 31.803 139.71 31.6447C139.768 31.5065 139.85 31.3797 139.952 31.2699C140.051 31.1694 140.171 31.0906 140.302 31.0387C140.435 30.9858 140.576 30.9585 140.719 30.9581C140.854 30.948 140.989 30.9668 141.115 31.0133C141.241 31.0599 141.356 31.133 141.452 31.2278C141.62 31.4297 141.706 31.6871 141.694 31.9494V34.1385H142.577V31.8233C142.581 31.5841 142.539 31.3463 142.454 31.1228C142.377 30.9309 142.261 30.7569 142.114 30.6114L142.104 30.5694ZM143.692 29.459H144.683V28.4538H143.692V29.459ZM143.751 34.1035H144.634V30.2156H143.751V34.1035ZM149.135 30.6919C148.959 30.5071 148.746 30.3604 148.511 30.2611C148.259 30.157 147.988 30.1046 147.715 30.107C147.434 30.1025 147.154 30.1574 146.895 30.2681C146.655 30.3675 146.437 30.514 146.254 30.6989C146.07 30.8836 145.927 31.1042 145.833 31.3469C145.731 31.6043 145.679 31.8791 145.682 32.156C145.679 32.4382 145.733 32.7182 145.84 32.9792C145.94 33.2219 146.088 33.4422 146.275 33.6271C146.461 33.8134 146.682 33.96 146.927 34.058C147.191 34.1624 147.473 34.2147 147.757 34.2121C148.165 34.217 148.565 34.1013 148.907 33.8793C149.239 33.6623 149.492 33.3442 149.629 32.9722H148.7C148.607 33.114 148.474 33.225 148.318 33.2909C148.15 33.3623 147.968 33.3981 147.785 33.396C147.509 33.4026 147.238 33.3121 147.021 33.1403C146.81 32.9744 146.669 32.7358 146.625 32.4713H149.699C149.71 32.4135 149.716 32.3549 149.717 32.2961V32.121C149.719 31.8513 149.669 31.5837 149.569 31.3329C149.467 31.1084 149.323 30.9052 149.145 30.734L149.135 30.6919ZM146.615 31.7637C146.631 31.64 146.672 31.5207 146.735 31.4131C146.798 31.3054 146.883 31.2114 146.983 31.1368C147.193 30.9766 147.451 30.8926 147.715 30.8986C147.967 30.8839 148.216 30.9649 148.411 31.1253C148.606 31.2857 148.733 31.5137 148.767 31.7637H146.615ZM153.884 32.135C153.593 31.9301 153.248 31.8156 152.892 31.8058L152.153 31.7462C151.969 31.7373 151.789 31.6957 151.62 31.6236C151.563 31.5992 151.516 31.5585 151.482 31.5067C151.449 31.4549 151.433 31.3944 151.434 31.3329C151.433 31.2589 151.453 31.1862 151.493 31.1239C151.533 31.0615 151.591 31.0124 151.658 30.9827C151.846 30.8949 152.051 30.854 152.258 30.8636C152.486 30.857 152.714 30.8951 152.927 30.9757C153.095 31.0422 153.233 31.1664 153.316 31.3259H154.273C154.224 31.152 154.145 30.9874 154.042 30.839C153.934 30.6838 153.797 30.5506 153.639 30.4468C153.457 30.3313 153.258 30.245 153.05 30.1911C152.798 30.122 152.537 30.089 152.275 30.093C152.032 30.0893 151.79 30.1223 151.557 30.1911C151.36 30.2446 151.176 30.3349 151.013 30.4573C150.868 30.5623 150.748 30.6988 150.663 30.8566C150.582 31.0087 150.54 31.1783 150.54 31.3504C150.53 31.4991 150.554 31.6481 150.61 31.786C150.667 31.9239 150.755 32.0469 150.866 32.1455C151.15 32.3554 151.488 32.4773 151.841 32.4958L152.633 32.5729C152.816 32.5813 152.995 32.6241 153.162 32.699C153.218 32.7272 153.265 32.771 153.296 32.825C153.328 32.879 153.344 32.9411 153.341 33.0037C153.341 33.0757 153.319 33.1459 153.277 33.2048C153.236 33.2637 153.177 33.3085 153.11 33.3329C152.931 33.4128 152.737 33.4511 152.542 33.445C152.282 33.4549 152.023 33.4107 151.781 33.3154C151.693 33.2794 151.613 33.2257 151.546 33.1576C151.479 33.0896 151.426 33.0086 151.392 32.9196H150.453C150.541 33.303 150.773 33.6379 151.101 33.8548C151.513 34.1084 151.992 34.2305 152.475 34.2051C152.727 34.2095 152.979 34.1764 153.222 34.107C153.421 34.0535 153.61 33.9658 153.779 33.8478C153.924 33.7443 154.044 33.6089 154.129 33.452C154.21 33.2986 154.251 33.1277 154.249 32.9546C154.251 32.8069 154.22 32.6606 154.159 32.5261C154.098 32.3916 154.008 32.2724 153.895 32.1771L153.884 32.135Z" fill="#565259"/>
</svg>
