<svg width="28" height="25" viewBox="0 0 28 25" fill="none" xmlns="http://www.w3.org/2000/svg">
<path d="M13.1986 2.70688L13.9054 1.99948L12.4906 0.585851L11.7838 1.29325L13.1986 2.70688ZM2 12.4999L1.2926 11.7931L0.586384 12.4999L1.29259 13.2067L2 12.4999ZM11.7836 23.7068L12.4904 24.4142L13.9052 23.0006L13.1984 22.2932L11.7836 23.7068ZM11.7838 1.29325L1.2926 11.7931L2.7074 13.2067L13.1986 2.70688L11.7838 1.29325ZM1.29259 13.2067L11.7836 23.7068L13.1984 22.2932L2.70741 11.7931L1.29259 13.2067ZM2 13.4999L28 13.4998L28 11.4998L2 11.4999L2 13.4999Z" fill="white"/>
</svg>
