<svg width="15" height="15" viewBox="0 0 15 15" fill="none" xmlns="http://www.w3.org/2000/svg">
<path d="M3.44299 2.60202L2.44299 2.60207L2.44289 0.602071L3.44289 0.602019L3.44299 2.60202ZM13.5122 1.6015L13.5121 0.601501L14.5122 0.60145L14.5122 1.60153L13.5122 1.6015ZM14.5119 11.6708L14.5118 12.6708L12.5118 12.6707L12.5119 11.6707L14.5119 11.6708ZM3.44289 0.602019L13.5121 0.601501L13.5122 2.6015L3.44299 2.60202L3.44289 0.602019ZM14.5122 1.60153L14.5119 11.6708L12.5119 11.6707L12.5122 1.60147L14.5122 1.60153ZM14.2193 2.30861L1.74144 14.7864L0.327232 13.3721L12.8051 0.894392L14.2193 2.30861Z" fill="white"/>
</svg>
