<svg width="28" height="25" viewBox="0 0 28 25" fill="none" xmlns="http://www.w3.org/2000/svg">
<path d="M14.8014 2.70688L14.0946 1.99948L15.5094 0.585851L16.2162 1.29325L14.8014 2.70688ZM26 12.4999L26.7074 11.7931L27.4136 12.4999L26.7074 13.2067L26 12.4999ZM16.2164 23.7068L15.5096 24.4142L14.0948 23.0006L14.8016 22.2932L16.2164 23.7068ZM16.2162 1.29325L26.7074 11.7931L25.2926 13.2067L14.8014 2.70688L16.2162 1.29325ZM26.7074 13.2067L16.2164 23.7068L14.8016 22.2932L25.2926 11.7931L26.7074 13.2067ZM26 13.4999L-3.38627e-06 13.4998L3.38627e-06 11.4998L26 11.4999L26 13.4999Z" fill="#06A478"/>
</svg>
