<svg width="19" height="19" viewBox="0 0 19 19" fill="none" xmlns="http://www.w3.org/2000/svg">
<g clip-path="url(#clip0_207_101)">
<path d="M18.0645 9.03226C18.0645 4.04388 14.0206 0 9.03226 0C4.04388 0 0 4.04388 0 9.03226C0 13.5404 3.30295 17.2772 7.62097 17.9548V11.6431H5.32762V9.03226H7.62097V7.04234C7.62097 4.77863 8.96946 3.52823 11.0326 3.52823C12.0205 3.52823 13.0544 3.70464 13.0544 3.70464V5.92742H11.9155C10.7935 5.92742 10.4435 6.62372 10.4435 7.33871V9.03226H12.9486L12.5481 11.6431H10.4435V17.9548C14.7616 17.2772 18.0645 13.5404 18.0645 9.03226Z" fill="#85898D"/>
</g>
<defs>
<clipPath id="clip0_207_101">
<rect width="18.0645" height="18.0645" fill="white"/>
</clipPath>
</defs>
</svg>
