<svg width="19" height="19" viewBox="0 0 19 19" fill="none" xmlns="http://www.w3.org/2000/svg">
<g clip-path="url(#clip0_207_102)">
<path d="M9.09671 1.62651C11.51 1.62651 11.7958 1.6371 12.7449 1.67944C13.627 1.71825 14.1033 1.86643 14.4208 1.98992C14.8407 2.15222 15.1441 2.3498 15.4581 2.66381C15.7756 2.98135 15.9697 3.28125 16.132 3.70111C16.2555 4.01865 16.4037 4.49849 16.4425 5.37702C16.4848 6.32964 16.4954 6.61542 16.4954 9.0252C16.4954 11.4385 16.4848 11.7243 16.4425 12.6734C16.4037 13.5554 16.2555 14.0318 16.132 14.3493C15.9697 14.7692 15.7721 15.0726 15.4581 15.3866C15.1406 15.7041 14.8407 15.8982 14.4208 16.0605C14.1033 16.184 13.6234 16.3322 12.7449 16.371C11.7923 16.4133 11.5065 16.4239 9.09671 16.4239C6.68341 16.4239 6.39762 16.4133 5.44853 16.371C4.56647 16.3322 4.09016 16.184 3.77262 16.0605C3.35276 15.8982 3.04933 15.7006 2.73532 15.3866C2.41778 15.0691 2.22373 14.7692 2.06143 14.3493C1.93794 14.0318 1.78976 13.5519 1.75095 12.6734C1.70861 11.7208 1.69802 11.435 1.69802 9.0252C1.69802 6.6119 1.70861 6.32611 1.75095 5.37702C1.78976 4.49496 1.93794 4.01865 2.06143 3.70111C2.22373 3.28125 2.42131 2.97782 2.73532 2.66381C3.05286 2.34627 3.35276 2.15222 3.77262 1.98992C4.09016 1.86643 4.57 1.71825 5.44853 1.67944C6.39762 1.6371 6.68341 1.62651 9.09671 1.62651ZM9.09671 0C6.64459 0 6.33764 0.0105847 5.37443 0.0529234C4.41476 0.0952621 3.75498 0.250504 3.1834 0.472782C2.58713 0.705645 2.0826 1.0126 1.58159 1.51714C1.07705 2.01815 0.770098 2.52268 0.537235 3.11542C0.314957 3.69052 0.159715 4.34677 0.117377 5.30645C0.0750378 6.27319 0.0644531 6.58014 0.0644531 9.03226C0.0644531 11.4844 0.0750378 11.7913 0.117377 12.7545C0.159715 13.7142 0.314957 14.374 0.537235 14.9456C0.770098 15.5418 1.07705 16.0464 1.58159 16.5474C2.0826 17.0484 2.58713 17.3589 3.17988 17.5882C3.75498 17.8105 4.41123 17.9657 5.3709 18.0081C6.33411 18.0504 6.64107 18.061 9.09318 18.061C11.5453 18.061 11.8523 18.0504 12.8155 18.0081C13.7751 17.9657 14.4349 17.8105 15.0065 17.5882C15.5992 17.3589 16.1038 17.0484 16.6048 16.5474C17.1058 16.0464 17.4163 15.5418 17.6456 14.9491C17.8679 14.374 18.0231 13.7177 18.0655 12.7581C18.1078 11.7949 18.1184 11.4879 18.1184 9.03579C18.1184 6.58367 18.1078 6.27671 18.0655 5.31351C18.0231 4.35383 17.8679 3.69405 17.6456 3.12248C17.4233 2.52268 17.1164 2.01815 16.6118 1.51714C16.1108 1.01613 15.6063 0.705645 15.0135 0.47631C14.4384 0.254032 13.7822 0.0987903 12.8225 0.0564516C11.8558 0.0105847 11.5488 0 9.09671 0Z" fill="#85898D"/>
<path d="M9.09671 4.39258C6.53522 4.39258 4.45709 6.4707 4.45709 9.0322C4.45709 11.5937 6.53522 13.6718 9.09671 13.6718C11.6582 13.6718 13.7363 11.5937 13.7363 9.0322C13.7363 6.4707 11.6582 4.39258 9.09671 4.39258ZM9.09671 12.0418C7.43491 12.0418 6.08713 10.694 6.08713 9.0322C6.08713 7.3704 7.43491 6.02262 9.09671 6.02262C10.7585 6.02262 12.1063 7.3704 12.1063 9.0322C12.1063 10.694 10.7585 12.0418 9.09671 12.0418Z" fill="#85898D"/>
<path d="M15.0029 4.20914C15.0029 4.80894 14.516 5.29231 13.9198 5.29231C13.32 5.29231 12.8366 4.80541 12.8366 4.20914C12.8366 3.60934 13.3235 3.12598 13.9198 3.12598C14.516 3.12598 15.0029 3.61287 15.0029 4.20914Z" fill="#85898D"/>
</g>
<defs>
<clipPath id="clip0_207_102">
<rect width="18.0645" height="18.0645" fill="white" transform="translate(0.0644531)"/>
</clipPath>
</defs>
</svg>
