<svg width="19" height="20" viewBox="0 0 19 20" fill="none" xmlns="http://www.w3.org/2000/svg">
<path d="M14.5488 19.0024C13.4903 18.8892 12.5634 18.6146 11.666 18.2455C9.8292 17.4925 8.19945 16.4072 6.68996 15.1316C4.61321 13.3766 2.8615 11.3498 1.52787 8.97705C0.824462 7.72756 0.291235 6.4124 0.0342645 4.9925C-0.0417487 4.57412 -0.000338644 4.21348 0.250392 3.85398C1.11944 2.60845 2.06563 1.43652 3.18711 0.408399C3.30775 0.299488 3.43714 0.200647 3.57399 0.11287C3.82131 -0.0484823 4.0034 -0.0388583 4.23088 0.154764C4.35094 0.254442 4.45821 0.368535 4.55025 0.494453C5.41759 1.7162 6.22254 2.97532 6.86581 4.33407C7.21411 5.06723 7.17951 5.19235 6.57084 5.73302C6.16411 6.09479 5.75852 6.45713 5.34895 6.8155C5.25025 6.90212 5.2355 6.98534 5.27521 7.11216C5.83623 9.00253 6.89985 10.5657 8.40253 11.827C9.42984 12.6904 10.5785 13.3432 11.8827 13.7038C12.0098 13.7389 12.0931 13.727 12.1794 13.6285C12.5197 13.2407 12.8675 12.8603 13.2061 12.4713C13.7955 11.7965 13.9254 11.7568 14.7241 12.143C16.0317 12.7848 17.2815 13.5379 18.4595 14.394C19.1403 14.8814 19.1658 15.1651 18.6048 15.7759C17.5285 16.9397 16.3073 17.9611 14.9709 18.815C14.8222 18.9107 14.6441 18.9611 14.5488 19.0024Z" fill="#85898D"/>
<path d="M18.986 8.80933H17.6501C17.603 6.76384 16.895 4.99519 15.4479 3.54981C14.0009 2.10444 12.2293 1.39845 10.1792 1.35146V0.0312069C14.5976 -0.145431 19.0427 3.72192 18.986 8.80933Z" fill="#85898D"/>
<path d="M15.5852 8.8067H14.2544C14.2193 7.70271 13.8403 6.7329 13.0484 5.94312C12.2565 5.15334 11.299 4.77459 10.1809 4.74176V3.41131C13.0774 3.33035 15.6607 5.87065 15.5852 8.8067Z" fill="#85898D"/>
</svg>
