<svg width="19" height="19" viewBox="0 0 19 19" fill="none" xmlns="http://www.w3.org/2000/svg">
<path fill-rule="evenodd" clip-rule="evenodd" d="M0.5 8.28571C0.5 3.98578 3.98578 0.5 8.28571 0.5C12.5856 0.5 16.0714 3.98578 16.0714 8.28571C16.0714 10.2557 15.3397 12.0549 14.1333 13.4262L18.3536 17.6464L17.6464 18.3536L13.4262 14.1333C12.0549 15.3397 10.2557 16.0714 8.28571 16.0714C3.98578 16.0714 0.5 12.5856 0.5 8.28571ZM8.28571 1.5C4.53807 1.5 1.5 4.53807 1.5 8.28571C1.5 12.0334 4.53807 15.0714 8.28571 15.0714C12.0334 15.0714 15.0714 12.0334 15.0714 8.28571C15.0714 4.53807 12.0334 1.5 8.28571 1.5Z" fill="#85898D"/>
</svg>
