<svg width="126" height="37" viewBox="0 0 126 37" fill="none" xmlns="http://www.w3.org/2000/svg">
<g clip-path="url(#clip0_294_771)">
<path d="M27.4276 14.3538H10.3249V10.2077H34.9059V1.90844H8.90156C3.98386 1.90844 0 6.55266 0 12.2773C0 18.0019 3.98386 22.6461 8.90156 22.6461H26.0043V26.7992H1.44594V35.0915H27.4276C32.3453 35.0915 36.3292 30.4472 36.3292 24.7226C36.3292 18.9981 32.3227 14.3538 27.4276 14.3538ZM67.1382 26.7992H62.1528V8.04695C62.1528 3.92888 57.0543 0.58252 50.7585 0.58252C44.4626 0.58252 39.3566 3.92888 39.3566 8.04695V35.0915H48.2657V10.2077H53.2512V28.953C53.2512 33.078 58.3572 36.4174 64.6455 36.4174C70.9338 36.4174 76.0473 33.078 76.0473 28.953V1.90844H67.1382V26.7992Z" fill="#676767"/>
<path d="M95.2361 21.8884C94.9543 21.8847 94.6748 21.9359 94.4155 22.0386C94.1561 22.1412 93.9226 22.2932 93.7299 22.4847C93.3418 22.8958 93.1277 23.4245 93.1277 23.972C93.1277 24.5195 93.3418 25.0482 93.7299 25.4593C93.9226 25.6508 94.1561 25.8027 94.4155 25.9054C94.6748 26.0081 94.9543 26.0592 95.2361 26.0556C95.6762 26.0705 96.1071 25.9359 96.4486 25.6767C96.7799 25.4112 97.0076 25.0511 97.0962 24.6525H95.0102V23.7896H98.1732C98.2135 24.6143 97.9145 25.4222 97.3372 26.0486C97.0791 26.3265 96.7583 26.548 96.3977 26.6971C96.0371 26.8463 95.6456 26.9195 95.2512 26.9115C94.4143 26.9115 93.6117 26.6018 93.0199 26.0505C92.4282 25.4992 92.0957 24.7516 92.0957 23.972C92.0957 23.1924 92.4282 22.4447 93.0199 21.8935C93.6117 21.3422 94.4143 21.0325 95.2512 21.0325C95.833 21.0195 96.4055 21.1711 96.8929 21.4675C97.3656 21.752 97.7418 22.1559 97.9774 22.632H96.8628C96.6783 22.3929 96.4333 22.2 96.1495 22.0703C95.8658 21.9405 95.552 21.8781 95.2361 21.8884Z" fill="#676767"/>
<path d="M99.8979 21.8815C100.502 21.3313 101.313 21.0232 102.157 21.0232C103.002 21.0232 103.813 21.3313 104.416 21.8815C104.997 22.4489 105.32 23.2025 105.32 23.9861C105.32 24.7697 104.997 25.5233 104.416 26.0907C103.813 26.6409 103.002 26.949 102.157 26.949C101.313 26.949 100.502 26.6409 99.8979 26.0907C99.3177 25.5233 98.9941 24.7697 98.9941 23.9861C98.9941 23.2025 99.3177 22.4489 99.8979 21.8815ZM100.651 25.4523C100.848 25.6435 101.085 25.7956 101.347 25.8995C101.609 26.0034 101.891 26.0569 102.176 26.0569C102.461 26.0569 102.743 26.0034 103.005 25.8995C103.267 25.7956 103.504 25.6435 103.701 25.4523C104.094 25.0463 104.312 24.5189 104.312 23.9721C104.312 23.4252 104.094 22.8978 103.701 22.4918C103.504 22.3006 103.267 22.1485 103.005 22.0446C102.743 21.9407 102.461 21.8872 102.176 21.8872C101.891 21.8872 101.609 21.9407 101.347 22.0446C101.085 22.1485 100.848 22.3006 100.651 22.4918C100.258 22.8978 100.04 23.4252 100.04 23.9721C100.04 24.5189 100.258 25.0463 100.651 25.4523Z" fill="#676767"/>
<path d="M107.474 21.1377V25.9433H110.644V26.7991H106.45V21.1377H107.474Z" fill="#676767"/>
<path d="M111.699 21.1377H113.77C114.214 21.1156 114.658 21.1768 115.076 21.3178C115.493 21.4588 115.877 21.6767 116.202 21.9585C116.772 22.4944 117.091 23.218 117.091 23.972C117.091 24.7259 116.772 25.4495 116.202 25.9854C115.876 26.2659 115.493 26.4825 115.075 26.6223C114.657 26.7621 114.213 26.8223 113.77 26.7992H111.699V21.1377ZM115.464 25.3961C115.861 25.0141 116.083 24.5034 116.083 23.972C116.083 23.4405 115.861 22.9298 115.464 22.5478C115.001 22.1663 114.395 21.9698 113.777 22.0006H112.708V25.9433H113.777C114.395 25.9741 115.001 25.7776 115.464 25.3961Z" fill="#676767"/>
<path d="M93.6321 29.4299L96.0721 34.0531L98.5046 29.4299H99.6568V35.0914H98.6477V31.1627L96.5842 35.0914H95.5299L93.4589 31.1627V35.0914H92.4497V29.4299H93.6321Z" fill="#676767"/>
<path d="M102.195 29.4299V35.0914H101.186V29.4299H102.195Z" fill="#676767"/>
<path d="M108.197 29.4299H109.206V35.0914H108.091L104.725 30.819V35.0914H103.723V29.4299H104.83L108.197 33.7023V29.4299Z" fill="#676767"/>
<path d="M111.736 29.4299V35.0914H110.727V29.4299H111.736Z" fill="#676767"/>
<path d="M117.739 29.4299H118.748V35.0914H117.641L114.274 30.819V35.0914H113.265V29.4299H114.41L117.776 33.7023L117.739 29.4299Z" fill="#676767"/>
<path d="M123.063 30.1806C122.781 30.1747 122.501 30.2248 122.241 30.3277C121.981 30.4305 121.748 30.5836 121.557 30.7769C121.169 31.188 120.955 31.7167 120.955 32.2642C120.955 32.8116 121.169 33.3403 121.557 33.7514C121.75 33.9424 121.983 34.0935 122.243 34.195C122.502 34.2965 122.782 34.3461 123.063 34.3407C123.501 34.3533 123.931 34.2216 124.275 33.9689C124.603 33.7017 124.828 33.342 124.916 32.9447H122.829V32.0817H126C126.038 32.9061 125.739 33.7133 125.164 34.3407C124.906 34.6183 124.585 34.8395 124.224 34.9886C123.864 35.1377 123.472 35.2111 123.078 35.2036C122.662 35.2113 122.248 35.1404 121.862 34.9953C121.476 34.8502 121.125 34.6339 120.831 34.3593C120.537 34.0847 120.306 33.7575 120.151 33.3975C119.996 33.0374 119.921 32.6519 119.93 32.2642C119.919 31.8751 119.992 31.488 120.147 31.1262C120.301 30.7645 120.532 30.4356 120.826 30.1595C121.119 29.8806 121.472 29.6616 121.861 29.5166C122.25 29.3717 122.667 29.3039 123.086 29.3177C123.667 29.3089 124.238 29.4602 124.727 29.7526C125.195 30.0457 125.569 30.4503 125.812 30.9242H124.69C124.507 30.6833 124.262 30.4889 123.978 30.359C123.694 30.229 123.379 30.1677 123.063 30.1806Z" fill="#676767"/>
</g>
<path d="M84.3853 2.89453H85.5413V35.2615H84.3853V2.89453Z" fill="url(#paint0_linear_294_771)"/>
<defs>
<linearGradient id="paint0_linear_294_771" x1="84.9603" y1="2.89453" x2="84.9603" y2="35.2615" gradientUnits="userSpaceOnUse">
<stop offset="0.08" stop-color="#F4D69D"/>
<stop offset="0.16" stop-color="#DABC89"/>
<stop offset="0.3" stop-color="#B3946B"/>
<stop offset="0.43" stop-color="#977756"/>
<stop offset="0.54" stop-color="#866549"/>
<stop offset="0.61" stop-color="#805F44"/>
<stop offset="0.67" stop-color="#856346"/>
<stop offset="0.74" stop-color="#956E4D"/>
<stop offset="0.81" stop-color="#AF8159"/>
<stop offset="0.89" stop-color="#D29A68"/>
<stop offset="0.91" stop-color="#DDA26D"/>
</linearGradient>
<clipPath id="clip0_294_771">
<rect width="126" height="35.8349" fill="white" transform="translate(0 0.58252)"/>
</clipPath>
</defs>
</svg>
